<?xml version="1.0" encoding="UTF-8"?>
<svg version="1.1" xmlns="http://www.w3.org/2000/svg" width="1368" height="841">
<path d="M0 0 C0 20.46 0 40.92 0 62 C28.38 62 56.76 62 86 62 C89.37496811 70.99991497 89.37496811 70.99991497 90.1892395 74.2447052 C90.47092484 75.35274506 90.47092484 75.35274506 90.75830078 76.48316956 C90.95166016 77.26320847 91.14501953 78.04324738 91.34423828 78.84692383 C91.55764862 79.6918338 91.77105896 80.53674377 91.99093628 81.40725708 C92.68836911 84.17278464 93.3793371 86.93988394 94.0703125 89.70703125 C94.55643884 91.63908166 95.04300784 93.57102074 95.52999878 95.50285339 C96.80601947 100.56901962 98.07671115 105.63650661 99.34606934 110.7043457 C101.38325068 118.83327713 103.42912875 126.96002569 105.47393417 135.08704185 C106.18716227 137.92460571 106.89846915 140.76264551 107.60940552 143.6007843 C108.04443249 145.33387786 108.4794798 147.06696632 108.91455078 148.80004883 C109.11195862 149.59020889 109.30936646 150.38036896 109.51275635 151.19447327 C110.25997577 154.16690856 111.03035848 157.09107543 112 160 C112.35799431 158.88843285 112.35799431 158.88843285 112.72322083 157.75440979 C115.75044455 148.35628815 118.78033337 138.95902801 121.8125 129.5625 C122.1725091 128.44684095 122.1725091 128.44684095 122.53979111 127.30864334 C129.57834018 105.49940123 136.68744498 83.71937985 144 62 C162.81 62 181.62 62 201 62 C203.5456443 68.36411075 205.9729035 74.63164357 208.11621094 81.12158203 C208.39964859 81.97160294 208.68308624 82.82162384 208.97511292 83.69740295 C209.89771941 86.46659957 210.81608531 89.23718174 211.734375 92.0078125 C212.37858195 93.94416923 213.02305645 95.88043697 213.66778564 97.81661987 C215.35384102 102.88237716 217.03628745 107.94932573 218.71795654 113.01654053 C220.43867721 118.19925877 222.16284782 123.38082894 223.88671875 128.5625 C227.26116862 138.70721973 230.6318027 148.85320276 234 159 C235.99988097 155.46370573 236.90736929 151.87586006 237.8918457 147.94677734 C238.06942413 147.24358871 238.24700256 146.54040009 238.42996216 145.81590271 C239.01618523 143.4903017 239.59590304 141.16312789 240.17578125 138.8359375 C240.58646063 137.20313929 240.9976167 135.5704609 241.40922546 133.93789673 C242.49462251 129.6287111 243.57482715 125.31824228 244.65356445 121.00738525 C246.36788119 114.15885184 248.08867891 107.311951 249.8120327 100.4656868 C250.57278431 97.43847786 251.32907596 94.41016257 252.08410358 91.38152122 C254.57304174 81.53025283 257.27719378 71.80210239 260 62 C280.13 62 300.26 62 321 62 C319.515 66.95 319.515 66.95 318 72 C317.32866801 74.33199534 316.65995896 76.6647606 316 79 C316.46148438 78.56429687 316.92296875 78.12859375 317.3984375 77.6796875 C330.75366528 65.48578387 346.26551107 60.94288669 364 59 C364.93972656 58.88914062 365.87945313 58.77828125 366.84765625 58.6640625 C396.98710215 55.7255658 436.57526667 54.42271334 461.4375 74.3125 C473.25427815 85.45758761 477.60689353 103.09396108 478.27243042 118.81356812 C478.38469245 123.19634379 478.39541761 127.57795462 478.38012505 131.96196556 C478.37084909 134.86966236 478.38142074 137.77673666 478.39674377 140.68440247 C478.43640726 148.93827622 478.43804677 157.19209149 478.43579102 165.44604492 C478.43573961 170.5285859 478.45504561 175.61078469 478.48512459 180.69323158 C478.49582556 183.5342653 478.48390038 186.37461163 478.47129822 189.21562195 C478.49411648 200.36166524 479.72413434 209.29843811 484.13084412 219.65861511 C485 222 485 222 485 225 C465.53 225 446.06 225 426 225 C420.375 212.625 420.375 212.625 419 207 C418.39414062 207.50789062 417.78828125 208.01578125 417.1640625 208.5390625 C395.3243381 226.48123609 371.69643998 229.69223842 344 228 C328.82671784 226.18550303 315.79825448 219.66983555 306.14453125 207.69921875 C298.19574836 196.33540322 296.65575216 183.9697073 298.6875 170.4375 C300.66278572 160.86076992 305.43095279 152.26988239 313 146 C329.39071244 135.47509397 348.743728 132.40497198 367.4765625 128.50537109 C380.7677674 125.72833339 393.82109897 122.53488708 406.83227539 118.6449585 C409.88110019 117.73784813 412.93978341 116.86781495 416 116 C414.34443192 106.17962541 414.34443192 106.17962541 408 99 C398.07571418 94.65812495 385.92649992 96.5466544 376 100 C370.44748868 102.72577828 367.768221 106.62898953 365 112 C364.67 112.99 364.34 113.98 364 115 C357.1536088 115.12331079 350.52887541 114.65464293 343.7265625 113.90625 C342.15822159 113.73977966 342.15822159 113.73977966 340.55819702 113.56994629 C337.24663973 113.21772869 333.93580772 112.85918913 330.625 112.5 C327.29266205 112.14191666 323.96018814 111.78517245 320.62753296 111.43005371 C318.56061013 111.20945062 316.49388972 110.98694095 314.42739868 110.7623291 C313.49567841 110.66222534 312.56395813 110.56212158 311.60400391 110.45898438 C310.78509674 110.37015991 309.96618958 110.28133545 309.12246704 110.18981934 C306.85714404 109.95546109 306.85714404 109.95546109 304 110 C293.99172075 137.04458608 284.01254116 164.09965875 274.0776062 191.17127991 C273.38420571 193.06019052 272.69046923 194.94897784 271.99636841 196.83763123 C270.31043593 201.42539182 268.6294684 206.01485528 266.95800781 210.60791016 C266.63442291 211.49408524 266.31083801 212.38026031 265.97744751 213.29328918 C265.36613636 214.96751116 264.75695816 216.64251397 264.15023804 218.31840515 C262.11281859 223.88718141 262.11281859 223.88718141 261 225 C259.2507128 225.09365006 257.49763746 225.11744438 255.74584961 225.11352539 C254.62476303 225.11344986 253.50367645 225.11337433 252.34861755 225.11329651 C250.51896202 225.10555458 250.51896202 225.10555458 248.65234375 225.09765625 C247.41078018 225.0962413 246.16921661 225.09482635 244.89002991 225.09336853 C241.58394509 225.08870591 238.27792854 225.07971497 234.97186279 225.06866455 C231.6003885 225.05844827 228.22890717 225.05387045 224.85742188 225.04882812 C218.23826225 225.03777395 211.61913507 225.02101736 205 225 C194.28932022 193.6815956 183.63591801 162.3438658 173 131 C162.50384226 162.28027966 152.25771521 193.64069922 142 225 C123.19 225 104.38 225 85 225 C81.865 216.481875 78.73 207.96375 75.5 199.1875 C67.29812404 176.91571339 59.05642283 154.65925791 50.76513672 132.42059326 C47.33555533 123.22081876 43.91750869 114.01676459 40.5 104.8125 C39.93555193 103.29247859 39.37109899 101.77245899 38.80664062 100.25244141 C37.53759813 96.83502115 36.26880203 93.41750957 35 90 C34.67 95.94 34.34 101.88 34 108 C22.78 108 11.56 108 0 108 C0.08877415 115.79109991 0.17938753 123.58181284 0.28729248 131.372612 C0.33703742 135.00138179 0.38352552 138.63012357 0.421875 142.2590332 C0.45900755 145.76049983 0.50543914 149.26173556 0.55806351 152.7630024 C0.58535473 154.7352296 0.60325052 156.70757969 0.62094116 158.67991638 C0.56949062 170.14775734 0.56949062 170.14775734 4.75 180.53515625 C10.07191979 183.99994778 17.57671773 182.47067081 23.51953125 181.31640625 C26.37105251 180.60944546 29.18117155 179.82510028 32 179 C33.63283066 188.74563051 34.71873243 198.48041694 35.625 208.3125 C35.76006724 209.74677774 35.8954821 211.18102279 36.03125 212.61523438 C36.35815756 216.07645693 36.68041958 219.53809229 37 223 C22.97285662 226.61337835 9.89804277 228.18454378 -4.57284546 228.29653931 C-6.56792463 228.31205609 -8.56290616 228.33884561 -10.55786133 228.3659668 C-24.46215503 228.35628353 -39.07377402 226.59757616 -49.75 216.875 C-64.053134 201.18877993 -63.17274188 179.00543566 -63.09765625 159.07421875 C-63.09578547 157.59064278 -63.09436469 156.10706619 -63.09336853 154.62348938 C-63.08959527 150.76521016 -63.07981096 146.90697007 -63.06866455 143.04870605 C-63.0583372 139.09302296 -63.05384693 135.13733339 -63.04882812 131.18164062 C-63.03818267 123.45440739 -63.0206296 115.72721422 -63 108 C-70.59 108 -78.18 108 -86 108 C-86 92.82 -86 77.64 -86 62 C-78.41 62 -70.82 62 -63 62 C-63 52.1 -63 42.2 -63 32 C-60.28394531 30.61167969 -57.56789063 29.22335937 -54.76953125 27.79296875 C-51.11693071 25.92498093 -47.46469386 24.05628278 -43.8125 22.1875 C-42.875271 21.7080191 -41.93804199 21.22853821 -40.97241211 20.73452759 C-29.4408386 14.83350042 -17.91557355 8.92424877 -6.47583008 2.84643555 C-1.09962273 0 -1.09962273 0 0 0 Z M406.6875 150.625 C401.34473659 152.33629805 396.00005507 154.01714302 390.60546875 155.55859375 C389.72995361 155.81108887 388.85443848 156.06358398 387.95239258 156.32373047 C386.28423194 156.80188279 384.61360158 157.27153528 382.94018555 157.73095703 C373.84154734 160.35590896 366.47962266 163.86923626 361.6875 172.3125 C360.50909036 176.9190104 360.79612364 180.83732211 363.09375 184.96484375 C366.83554942 189.88115243 370.99150783 191.89212188 377 193 C387.69187547 194.33179501 397.49270511 190.27394631 406 184 C411.70894595 178.77180739 414.83943683 172.67026749 416 165 C416.11483839 162.06100123 416.09454384 159.12813837 416.0625 156.1875 C416.05798828 155.39923828 416.05347656 154.61097656 416.04882812 153.79882812 C416.03711312 151.86585239 416.01917998 149.93291607 416 148 C412.99470849 148 409.57107905 149.70018002 406.6875 150.625 Z " fill="#F49834" transform="translate(598,613)"/>
<path d="M0 0 C6.93 0 13.86 0 21 0 C22.01835938 2.46082031 23.03671875 4.92164063 24.0859375 7.45703125 C33.91274965 31.19246547 43.80271721 54.90083674 53.73388672 78.59277344 C57.11751131 86.66546537 60.49658637 94.74006173 63.87600708 102.81451416 C65.75048524 107.29308736 67.6252575 111.77153745 69.5 116.25 C70.25000141 118.04166608 71.00000141 119.83333274 71.75 121.625 C72.12125 122.511875 72.4925 123.39875 72.875 124.3125 C92 170 111.125 215.6875 130.25 261.375 C130.62121979 262.26179947 130.99243958 263.14859894 131.37490845 264.06227112 C132.12522328 265.85469668 132.87552845 267.64712629 133.62582397 269.43955994 C135.49592788 273.90714867 137.36619744 278.37466791 139.23681641 282.84204102 C143.06526333 291.98558317 146.89063155 301.13039695 150.7109375 310.27734375 C154.80560531 320.08030046 158.91106407 329.87869081 163.02410889 339.6739502 C163.94226652 341.86239146 164.85845071 344.05164641 165.77392578 346.24121094 C181.66328548 388.87049071 181.66328548 388.87049071 214.4296875 417.71484375 C223.73080451 421.06283882 233.20273134 422.02027313 243 423 C243 430.92 243 438.84 243 447 C183.6 447 124.2 447 63 447 C63 439.08 63 431.16 63 423 C67.57875 422.5978125 67.57875 422.5978125 72.25 422.1875 C89.35665693 420.6783853 89.35665693 420.6783853 103.375 411.5625 C108.71873916 399.84737954 103.16677536 386.31357586 99 375 C90.01589567 351.40097729 79.8554692 328.23074882 70 305 C18.52 305 -32.96 305 -86 305 C-111.40902578 351.06673772 -111.40902578 351.06673772 -122 408 C-118.27391115 414.68126276 -112.14484685 416.92806815 -105 419 C-95.10880979 421.05886492 -85.0398114 421.99601886 -75 423 C-75 430.92 -75 438.84 -75 447 C-123.18 447 -171.36 447 -221 447 C-221 439.41 -221 431.82 -221 424 C-219.205625 423.608125 -217.41125 423.21625 -215.5625 422.8125 C-210.02371757 421.52497602 -204.53366446 420.1126334 -199.0625 418.5625 C-198.35359619 418.36954346 -197.64469238 418.17658691 -196.91430664 417.9777832 C-181.86237575 413.6160128 -174.12804299 399.92172055 -167 387 C-166.15526123 385.50629883 -166.15526123 385.50629883 -165.29345703 383.98242188 C-158.99300711 372.66051044 -154.0315222 360.80058149 -149 348.875 C-148.06571474 346.67504576 -147.1306448 344.47542462 -146.19482422 342.27612305 C-144.78307838 338.95805008 -143.37180491 335.63978641 -141.96310425 332.32041931 C-138.36757516 323.84883666 -134.72512435 315.39856509 -131.05712891 306.9581604 C-123.79922539 290.2512478 -116.66006585 273.49426098 -109.53033447 256.73233032 C-102.04841304 239.14272916 -94.5364813 221.56629101 -87 204 C-79.13987799 185.67800725 -71.30545221 167.34534954 -63.5 149 C-55.6945473 130.65464932 -47.85978909 112.32213624 -40 94 C-31.74701817 74.76010203 -23.51677018 55.51070825 -15.3125 36.25 C-14.82418701 35.10402344 -14.33587402 33.95804688 -13.83276367 32.77734375 C-12.44651878 29.52368585 -11.06100036 26.26971973 -9.67578125 23.015625 C-9.27474686 22.07430725 -8.87371246 21.1329895 -8.46052551 20.16314697 C-5.60713035 13.45577122 -2.79769491 6.73080288 0 0 Z M-7 119 C-18.26230293 144.80503504 -29.44268039 170.64358162 -40.51025391 196.53277588 C-45.9582305 209.27563897 -51.42457819 222.00958035 -56.96875 234.7109375 C-57.44062744 235.79248108 -57.91250488 236.87402466 -58.39868164 237.98834229 C-60.63006772 243.10013337 -62.86629756 248.20973489 -65.109375 253.31640625 C-65.89591888 255.11454592 -66.68238216 256.91272084 -67.46875 258.7109375 C-67.82996948 259.52887787 -68.19118896 260.34681824 -68.56335449 261.18954468 C-70.35445956 264.95331443 -70.35445956 264.95331443 -71 269 C-57.83907809 269.09277144 -44.67823427 269.16380158 -31.5170517 269.20724869 C-25.40545585 269.22810348 -19.29408408 269.25638322 -13.18261719 269.30175781 C-7.28225 269.34528984 -1.38209806 269.36915296 4.51841736 269.37950897 C6.76703783 269.38688706 9.01564683 269.40129475 11.26417542 269.42292023 C14.41921238 269.45205126 17.57336532 269.45595185 20.72851562 269.45410156 C22.11603531 269.47567322 22.11603531 269.47567322 23.53158569 269.49768066 C30.0952768 269.45615997 35.64015108 268.18731959 40.52579498 263.55255508 C45.12445269 258.26079489 46.57371318 254.13042509 46.42431641 247.22167969 C45.57756427 240.79259959 42.76984523 235.01312834 40.1875 229.125 C39.55692608 227.64632163 38.92832284 226.1668016 38.30151367 224.68652344 C36.94139135 221.48281189 35.57011657 218.28420097 34.19042969 215.08886719 C31.93693452 209.86440767 29.71879058 204.62538384 27.5078125 199.3828125 C26.93472855 198.02401726 26.93472855 198.02401726 26.35006714 196.63777161 C25.56663675 194.77996764 24.78330222 192.92212324 24.00006104 191.0642395 C22.81064231 188.2455977 21.61835829 185.428184 20.42529297 182.61108398 C11.47521675 161.46609084 2.73168067 140.23590844 -6 119 C-6.33 119 -6.66 119 -7 119 Z " fill="#000000" transform="translate(1114,189)"/>
<path d="M0 0 C108.57 0 217.14 0 329 0 C333 87 333 87 333 106 C325.74 106 318.48 106 311 106 C310.1646875 103.35484375 310.1646875 103.35484375 309.3125 100.65625 C302.10452172 78.19021698 295.21454277 56.93292589 273.48046875 44.56640625 C260.61269315 38.21729882 246.23631901 36.87690348 232.0859375 36.79467773 C231.0216301 36.78477814 229.95732269 36.77487854 228.86076355 36.76467896 C225.36553116 36.7332548 221.87028521 36.70838241 218.375 36.68359375 C215.94262349 36.66300772 213.51025043 36.64201083 211.07788086 36.62062073 C204.69275716 36.56557032 198.30760208 36.51608626 191.92242432 36.46777344 C185.40007758 36.41743369 178.87777609 36.36181288 172.35546875 36.30664062 C159.57035146 36.19926751 146.78519546 36.09759719 134 36 C134.03718764 54.52411304 134.09707923 73.04802052 134.18390274 91.57196903 C134.22368994 100.17322662 134.25608403 108.77439277 134.27099609 117.37573242 C134.28401429 124.87381579 134.31098315 132.37169792 134.35461307 139.86966795 C134.37722425 143.83879553 134.3929109 147.80767493 134.39188385 151.77687263 C134.39113702 155.51575853 134.40909629 159.25409588 134.44116783 162.99283981 C134.45369752 165.01321864 134.44660457 167.03368958 134.43885803 169.05409241 C134.51721027 175.88443363 134.76202843 180.51397268 139 186 C143.80231357 189.60173518 148.03685634 190.12390045 153.92333984 190.14526367 C155.11913666 190.15164352 156.31493347 190.15802338 157.54696655 190.16459656 C158.83857697 190.16570938 160.13018738 190.1668222 161.4609375 190.16796875 C162.81173741 190.17118688 164.16253698 190.17455136 165.51333618 190.17805481 C168.34955652 190.18404189 171.18574644 190.18589551 174.02197266 190.18530273 C177.61673825 190.18520197 181.21130248 190.19876597 184.80602074 190.21607494 C187.60141857 190.22732958 190.39677012 190.22921775 193.19218826 190.22869301 C195.14932987 190.23041456 197.10645701 190.24118184 199.06356812 190.25224304 C213.56014327 190.21590317 229.83633537 189.44992214 241 179 C250.11389062 164.80809963 252.46603097 148.34410024 255 132 C262.59 132 270.18 132 278 132 C278.11592998 149.95058732 278.20506737 167.90104544 278.25906086 185.8519268 C278.28480154 194.1875473 278.31987241 202.52293037 278.37719727 210.85839844 C278.42715953 218.12677874 278.45932107 225.39498702 278.47044247 232.66353428 C278.4769397 236.50939497 278.49212222 240.35476372 278.52865028 244.20046616 C278.56281336 247.82686653 278.5730127 251.45257652 278.56553841 255.07912254 C278.56755075 257.03106409 278.59433907 258.98293197 278.62210083 260.93467712 C278.57753477 268.60718984 277.56570092 274.67101271 273 281 C268.3863864 285.30719197 264.29090355 288.16870334 257.8125 288.0625 C256.554375 288.041875 255.29625 288.02125 254 288 C253.9906543 287.44763672 253.98130859 286.89527344 253.97167969 286.32617188 C253.52308024 260.80811541 253.52308024 260.80811541 241.22265625 239.203125 C232.20605002 231.75382251 220.97018537 229.88028576 209.60791016 229.79467773 C208.78773407 229.78477814 207.96755798 229.77487854 207.12252808 229.76467896 C204.4280683 229.7332458 201.73359093 229.70837889 199.0390625 229.68359375 C197.16433266 229.6630085 195.2896073 229.64201162 193.41488647 229.62062073 C188.49289589 229.56556231 183.57086455 229.51608178 178.64880371 229.46777344 C173.62130122 229.41743955 168.59385753 229.36181567 163.56640625 229.30664062 C153.7109878 229.19925771 143.85551818 229.09776902 134 229 C134.0607238 248.5421017 134.13835596 268.08406802 134.23571491 287.62602234 C134.28054037 296.70119052 134.31998501 305.77632062 134.34643555 314.8515625 C134.36952356 322.76830622 134.4030405 330.68492806 134.44870156 338.6015749 C134.47248924 342.78724745 134.49131209 346.97280039 134.49761391 351.15853882 C134.50373101 355.11158489 134.52396433 359.0643255 134.55427551 363.01725769 C134.56295106 364.45536667 134.56680057 365.89351575 134.56500816 367.33164978 C134.38776802 385.33125976 134.38776802 385.33125976 140.875 401.625 C151.90888423 412.19134676 167.18682593 413.27204227 181.5625 413.625 C182.85736328 413.66367187 184.15222656 413.70234375 185.48632812 413.7421875 C188.6573349 413.83579656 191.82864719 413.91895669 195 414 C195 421.92 195 429.84 195 438 C130.65 438 66.3 438 0 438 C0 430.08 0 422.16 0 414 C1.94261719 413.96261719 3.88523438 413.92523437 5.88671875 413.88671875 C7.81651203 413.83795141 9.74630395 413.78908023 11.67602539 413.73754883 C13.63341834 413.68884564 15.59113612 413.6537988 17.54882812 413.61914062 C30.99952983 413.24265788 43.48225795 411.79171825 53.3125 401.9375 C61.24159722 392.04767493 60.14915501 375.92099937 60.13371277 363.93940735 C60.1371111 361.99483502 60.1371111 361.99483502 60.14057809 360.0109784 C60.14666547 356.43263422 60.14656612 352.85431351 60.14538372 349.27596533 C60.14517893 345.40874032 60.1507059 341.54152269 60.15544128 337.67430115 C60.16373174 330.10488019 60.1664954 322.53546702 60.16705366 314.9660419 C60.16752961 308.80981546 60.16958831 302.65359158 60.17275429 296.49736595 C60.18155672 279.02412324 60.18617434 261.55088665 60.18542381 244.0776417 C60.18536388 242.66599495 60.18536388 242.66599495 60.18530273 241.22583008 C60.18524141 239.81244962 60.18524141 239.81244962 60.18517885 238.37051602 C60.18477257 223.10660001 60.19433876 207.84270869 60.2084411 192.57879982 C60.2228237 176.88709334 60.22971024 161.19539889 60.22884732 145.50368565 C60.22851599 136.70159212 60.23123511 127.89952448 60.24202538 119.0974369 C60.25115522 111.60208209 60.25328532 104.10676488 60.24651595 96.6114069 C60.24326316 92.79195606 60.24314886 88.97257727 60.2518692 85.15313339 C60.26125211 81.00053871 60.25492581 76.84810904 60.24723816 72.69551086 C60.25238172 71.50510816 60.25752529 70.31470546 60.26282471 69.08822995 C60.56298462 51.65323438 60.56298462 51.65323438 53.53125 36.39453125 C42.30221543 26.05871534 27.93204928 24.58070027 13.25 24.3125 C11.96867188 24.27833984 10.68734375 24.24417969 9.3671875 24.20898438 C6.24507949 24.12743678 3.12255689 24.06202339 0 24 C0 16.08 0 8.16 0 0 Z " fill="#000000" transform="translate(217,198)"/>
<path d="M0 0 C0.78536133 0.16628906 1.57072266 0.33257812 2.37988281 0.50390625 C22.35522986 4.76573454 40.97497889 12.11554152 59.25830078 21.13891602 C66.8070201 24.84496069 66.8070201 24.84496069 75 25 C77.76441969 23.59240659 77.76441969 23.59240659 80 22 C80.66 22 81.32 22 82 22 C82.41958984 21.15115234 82.41958984 21.15115234 82.84765625 20.28515625 C83.60550663 18.78230041 84.38373567 17.28951911 85.18359375 15.80859375 C88.43277286 9.66450739 90.35517283 3.75244837 92 -3 C99.26 -3 106.52 -3 114 -3 C115.49305275 12.04534623 116.70743654 27.08388616 117.7265625 42.16796875 C117.8805722 44.42654412 118.03465706 46.68511437 118.18881226 48.94367981 C118.5084721 53.63866687 118.82576774 58.33380683 119.14160156 63.02905273 C119.54340906 68.99644948 119.95346132 74.96324875 120.36556435 80.92994213 C120.68545294 85.5806766 120.9997705 90.23177595 121.312603 94.88298988 C121.46133926 97.08157943 121.61199754 99.28003996 121.76475906 101.4783535 C122.47013356 111.65787461 123.1344677 121.84438684 123.34130859 132.0480957 C123.36932871 132.75684688 123.39734882 133.46559805 123.42621803 134.19582653 C123.47326593 140.21920025 121.45381419 144.32420261 117.40234375 148.7421875 C112.40272319 152.60856073 109.25625728 153.11804259 103 153 C102.75991211 152.22213135 102.51982422 151.4442627 102.27246094 150.64282227 C93.60712306 122.87583531 83.09664736 96.39684467 64 74 C63.32582031 73.18015625 62.65164063 72.3603125 61.95703125 71.515625 C41.58858614 47.62258556 10.19602034 35.65500292 -20.3125 32.375 C-55.23915211 29.63076305 -91.54461137 38.55132183 -118.7890625 61.2265625 C-157.89500156 94.69644182 -171.56086975 149.01446243 -175.734375 198.30712891 C-179.91422562 256.41780951 -174.98715068 319.70741764 -136 366 C-135.33613281 366.81082031 -134.67226563 367.62164063 -133.98828125 368.45703125 C-112.38023049 393.81953076 -77.63694938 408.6447996 -45 412 C-43.44345703 412.16435547 -43.44345703 412.16435547 -41.85546875 412.33203125 C-5.96611815 415.58680912 32.38504321 408.87397277 60.93359375 385.609375 C63.34109683 383.45471471 65.67415201 381.24203365 68 379 C69.38892812 377.78373571 70.78444784 376.57494366 72.1875 375.375 C78.65938059 369.72185129 84.47245751 363.57219731 90 357 C90.45648926 356.45730469 90.91297852 355.91460938 91.38330078 355.35546875 C99.81920896 345.27662227 107.55990782 334.83170177 115 324 C120.24881176 324.48657624 124.0073114 327.26547398 128.3125 330.0625 C129.05306641 330.53494141 129.79363281 331.00738281 130.55664062 331.49414062 C132.37551219 332.65587149 134.1883659 333.82701482 136 335 C126.97037304 359.38930169 107.74557371 381.42613218 90 400 C89.32582031 400.72703125 88.65164063 401.4540625 87.95703125 402.203125 C58.70331153 432.8914621 13.64718225 451.21477059 -28.37347412 453.10687256 C-30.88738037 453.16337555 -33.39955548 453.19034503 -35.9140625 453.203125 C-36.83835052 453.21013931 -37.76263855 453.21715363 -38.7149353 453.22438049 C-41.68500684 453.24180716 -44.6548792 453.2482335 -47.625 453.25 C-48.63788086 453.25067474 -49.65076172 453.25134949 -50.69433594 453.25204468 C-65.34280674 453.23651 -79.60108313 452.95473269 -94 450 C-94.86802246 449.82839355 -95.73604492 449.65678711 -96.63037109 449.47998047 C-122.76659398 444.17883249 -148.1365657 434.42177326 -170 419 C-171.53333984 417.92298828 -171.53333984 417.92298828 -173.09765625 416.82421875 C-179.97764716 411.82623826 -186.32144423 406.34697994 -192.45703125 400.47558594 C-193.49379156 399.48410187 -194.5355596 398.49783023 -195.58203125 397.51660156 C-204.8417822 388.81446336 -212.60022713 379.3171768 -220 369 C-220.45503906 368.36835937 -220.91007813 367.73671875 -221.37890625 367.0859375 C-239.42345239 341.76970859 -250.51747267 312.75457574 -256.75 282.4375 C-256.94875732 281.48206299 -257.14751465 280.52662598 -257.35229492 279.54223633 C-260.42916918 263.76221042 -261.38536723 247.9209639 -261.3125 231.875 C-261.31067719 231.03171143 -261.30885437 230.18842285 -261.30697632 229.31958008 C-261.0973184 171.33653282 -242.07832072 111.16002508 -201.99609375 68.1484375 C-200.17614754 66.18959128 -198.46282627 64.17704125 -196.75 62.125 C-183.36261407 46.86889429 -166.62478706 34.86199801 -149 25 C-148.30100586 24.60071289 -147.60201172 24.20142578 -146.88183594 23.79003906 C-126.55202686 12.24126503 -104.86442564 4.72568218 -82 0 C-80.73978027 -0.26683594 -80.73978027 -0.26683594 -79.45410156 -0.5390625 C-54.56241821 -5.54720957 -24.77507852 -5.66669963 0 0 Z " fill="#000000" transform="translate(798,192)"/>
<path d="M0 0 C64.02 0 128.04 0 194 0 C194 7.95375582 193.69198132 12.04555555 188.3515625 17.765625 C182.27424587 23.23255612 176.87987645 24.23360502 168.9375 24.8125 C158.35565063 25.7618032 148.63571851 28.16849383 141 36 C138.37606562 39.78718993 137.29205027 43.18790717 136.375 47.6875 C136.13523438 48.82574219 135.89546875 49.96398437 135.6484375 51.13671875 C134.15222065 60.05092638 133.85429183 68.82927787 133.86628723 77.85694885 C133.8628889 79.75062514 133.8628889 79.75062514 133.85942191 81.68255752 C133.85334414 85.16163812 133.85343273 88.64069454 133.85461628 92.11977923 C133.85482132 95.88206702 133.84929169 99.64434725 133.84455872 103.40663147 C133.83627323 110.76904048 133.83350481 118.13144148 133.83294634 125.49385477 C133.83247009 131.48365089 133.8304099 137.47344438 133.82724571 143.46323967 C133.81844413 160.47267706 133.81382545 177.48210815 133.81457619 194.49154783 C133.81461614 195.40739613 133.8146561 196.32324443 133.81469727 197.2668457 C133.81475859 198.64231013 133.81475859 198.64231013 133.81482115 200.04556172 C133.81522726 214.89353008 133.80566511 229.74147303 133.7915589 244.58943404 C133.77716472 259.86195211 133.77029042 275.13445782 133.77115268 290.40698284 C133.77148364 298.97050133 133.76878085 307.53399321 133.75797462 316.09750557 C133.74882941 323.39109679 133.7467271 330.68464934 133.75348405 337.97824384 C133.75672936 341.69276022 133.75687882 345.40720258 133.7481308 349.12171173 C132.09392235 376.62843243 132.09392235 376.62843243 140.40234375 401.91796875 C152.16920047 411.6488299 166.37641524 413.25023548 181.0625 413.625 C182.30966797 413.66367187 183.55683594 413.70234375 184.84179688 413.7421875 C187.89430704 413.83575103 190.94713244 413.91893154 194 414 C194 421.92 194 429.84 194 438 C129.98 438 65.96 438 0 438 C0 430.08 0 422.16 0 414 C1.95421875 413.96261719 3.9084375 413.92523437 5.921875 413.88671875 C7.85826023 413.83796085 9.79464413 413.7890991 11.73095703 413.73754883 C13.69933525 413.6887559 15.66804034 413.65376562 17.63671875 413.61914062 C31.23502212 413.23949256 43.06433309 411.12175236 53.4375 401.8125 C63.10891552 384.40395207 60.29774186 358.81574827 60.26144934 339.69131005 C60.2568523 336.09408043 60.26394388 332.49686877 60.26940918 328.89964294 C60.2782291 321.88262938 60.27641449 314.86565899 60.2705839 307.84864385 C60.26603757 302.13708813 60.26546723 296.42554437 60.26763153 290.71398735 C60.267938 289.89612689 60.26824446 289.07826644 60.26856022 288.23562233 C60.26919977 286.57331463 60.2698482 284.91100693 60.2705054 283.24869924 C60.27618711 267.71838685 60.26968508 252.1880982 60.25890467 236.6577897 C60.24997282 223.38032774 60.2515224 210.10290078 60.26074219 196.82543945 C60.27148611 181.34618396 60.27563623 165.86694919 60.26951766 150.38769048 C60.26888067 148.73173646 60.26825193 147.07578244 60.26763153 145.41982841 C60.26732298 144.60541396 60.26701443 143.79099951 60.26669653 142.95190584 C60.26498178 137.25879068 60.26785814 131.56568885 60.27259064 125.87257576 C60.27824562 118.91791894 60.27658739 111.96330715 60.26602915 105.00865538 C60.26083348 101.47166841 60.25860893 97.93475606 60.26532745 94.39776993 C60.28346831 81.78921185 60.22875978 69.22638907 59.17132568 56.65501404 C59.10223315 55.78569215 59.03314061 54.91637026 58.96195436 54.02070528 C58.22688171 46.48994619 56.45942442 39.55832703 51 34 C48.41780018 32.23731411 48.41780018 32.23731411 45.5 30.875 C44.5615625 30.39804688 43.623125 29.92109375 42.65625 29.4296875 C32.7778173 25.56696702 23.29775352 24.51291877 12.75 24.3125 C11.51636719 24.27833984 10.28273438 24.24417969 9.01171875 24.20898438 C6.0081102 24.12749112 3.00407312 24.06204994 0 24 C0 16.08 0 8.16 0 0 Z " fill="#000000" transform="translate(0,198)"/>
<path d="M0 0 C0.94939453 0.70382812 0.94939453 0.70382812 1.91796875 1.421875 C16.10374174 12.45886085 25.24890432 31.79454352 27.72314453 49.32128906 C29.17891465 63.40657102 29.35291404 78.41256387 25 92 C24.50693359 93.59908203 24.50693359 93.59908203 24.00390625 95.23046875 C16.73614911 116.27930171 1.78970797 131.65003828 -17.921875 141.453125 C-44.21625932 153.25006499 -78.31408285 154.03023397 -105.3125 144.25 C-116.83669909 139.76323396 -126.13295084 133.61988402 -135 125 C-135.63679688 124.42507813 -136.27359375 123.85015625 -136.9296875 123.2578125 C-150.57360989 110.58412459 -157.60448392 91.36111454 -158.38671875 73.0859375 C-158.93063274 50.0722324 -155.51414396 28.94927542 -140 11 C-139.41863281 10.27683594 -138.83726562 9.55367187 -138.23828125 8.80859375 C-123.05711054 -9.39033504 -100.2529967 -17.52245009 -77.25390625 -19.6875 C-50.08255024 -21.86566382 -21.70158471 -17.47492582 0 0 Z M-87 34 C-93.71979852 43.37475979 -95.54062256 54.12757297 -95.375 65.4375 C-95.36484863 66.44377441 -95.35469727 67.45004883 -95.34423828 68.48681641 C-95.08726982 80.7954065 -93.00253765 90.65940881 -84.30078125 99.78125 C-77.23522799 106.2593303 -70.9947209 107.65395602 -61.50390625 107.40234375 C-52.99194874 106.42493949 -47.06954058 102.10574203 -41.69140625 95.59765625 C-33.31974202 82.74048139 -33.16358975 63.66769076 -36.125 49 C-38.91931354 38.7283104 -43.95026754 31.64374224 -53 26 C-64.4306446 20.2846777 -78.87492976 24.69045661 -87 34 Z " fill="#F49834" transform="translate(365,691)"/>
<path d="M0 0 C6.8947208 6.53367968 12.61027079 14.41263548 16.3125 23.19140625 C16.3125 24.51140625 16.3125 25.83140625 16.3125 27.19140625 C8.66335335 27.9099397 1.01355779 28.62123556 -6.63671875 29.32763672 C-9.23615554 29.56850493 -11.83544256 29.81099543 -14.43457031 30.05517578 C-18.18255495 30.40699809 -21.9310494 30.75287478 -25.6796875 31.09765625 C-26.83113251 31.20702515 -27.98257751 31.31639404 -29.16891479 31.42907715 C-43.67679941 32.74888105 -43.67679941 32.74888105 -48.6875 32.19140625 C-50.625 30.3984375 -50.625 30.3984375 -51.6875 28.00390625 C-54.78526698 22.39968393 -58.75144543 20.29865858 -64.6875 18.19140625 C-73.47375692 15.97709917 -83.50140396 16.05415685 -91.6875 20.19140625 C-94.41222902 22.23495302 -95.42007899 23.44644772 -96.5625 26.62890625 C-96.72556627 29.9717647 -96.56775212 31.37102808 -94.6875 34.19140625 C-88.09296319 38.2544857 -80.85817511 39.22458918 -73.3125 40.19140625 C-72.14074219 40.35455322 -70.96898438 40.5177002 -69.76171875 40.68579102 C-66.07181994 41.19945289 -62.3800013 41.69683132 -58.6875 42.19140625 C-2.7467326 49.74623052 -2.7467326 49.74623052 13.3125 68.19140625 C19.50553793 76.68207446 22.88518921 84.98682427 22.75 95.50390625 C22.74170166 96.33986328 22.73340332 97.17582031 22.72485352 98.03710938 C22.37868835 110.7405088 16.72578171 121.53552601 8.1875 130.87890625 C-9.79308854 147.61530228 -36.29389904 152.26306883 -60.04296875 152.39453125 C-60.89929901 152.40154556 -61.75562927 152.40855988 -62.63790894 152.41578674 C-65.38366019 152.43317436 -68.12919573 152.43963795 -70.875 152.44140625 C-72.2820369 152.44241837 -72.2820369 152.44241837 -73.71749878 152.44345093 C-101.954482 152.41117182 -131.68240406 151.00575769 -152.953125 130.1171875 C-159.37371537 123.46918282 -166.6875 112.82288374 -166.6875 103.19140625 C-164.13303058 101.91417154 -162.02355165 101.86116668 -159.17138672 101.61889648 C-158.01613495 101.51886826 -156.86088318 101.41884003 -155.67062378 101.31578064 C-154.41548981 101.21157303 -153.16035583 101.10736542 -151.8671875 101 C-150.57942413 100.89043472 -149.29166077 100.78086945 -147.96487427 100.66798401 C-145.23298251 100.43593102 -142.50086638 100.20678997 -139.76855469 99.97973633 C-136.28487619 99.69006193 -132.80179832 99.39379026 -129.31886101 99.09535122 C-125.98108712 98.81017042 -122.64287573 98.53028971 -119.3046875 98.25 C-117.44020462 98.09065224 -117.44020462 98.09065224 -115.53805542 97.92808533 C-109.5646795 97.43524377 -103.6812349 97.06547183 -97.6875 97.19140625 C-97.38457031 97.78308594 -97.08164063 98.37476563 -96.76953125 98.984375 C-92.5456442 106.9512758 -88.10550824 111.77734327 -79.6875 115.19140625 C-70.22194717 117.88969226 -57.8356201 117.39913968 -48.8359375 113.453125 C-45.33307835 111.39599135 -43.71772553 109.76180288 -41.6875 106.19140625 C-40.95421882 102.01170353 -41.11575921 100.1019564 -43.375 96.50390625 C-52.71247537 88.62481306 -70.1666321 88.1846271 -81.75 86.25390625 C-137.91174826 76.87559473 -137.91174826 76.87559473 -153.26171875 55.45703125 C-159.78649068 45.08890051 -160.46681261 32.68812376 -157.9921875 20.87109375 C-153.87980932 8.46484362 -144.10169312 -1.09243265 -132.87890625 -7.3828125 C-97.51788526 -24.90881167 -31.06902064 -26.23938121 0 0 Z " fill="#F49834" transform="translate(175.6875,688.80859375)"/>
<path d="M0 0 C24.02621641 -0.39926264 47.0809885 3.4294587 65.87109375 19.625 C81.1211637 34.47986997 87.35316006 53.92547149 89.68359375 74.55859375 C89.76391846 75.26016602 89.84424316 75.96173828 89.92700195 76.68457031 C90.71380465 84.87318048 90.43359375 92.80286949 90.43359375 101.12109375 C53.47359375 101.12109375 16.51359375 101.12109375 -21.56640625 101.12109375 C-17.74775393 117.13817973 -17.74775393 117.13817973 -7.48046875 128.5078125 C-0.83919921 132.02595714 5.85659116 133.30060142 13.22265625 131.40234375 C20.03180807 129.12650864 24.18650989 126.59452522 28.15722656 120.45678711 C30.43359375 118.12109375 30.43359375 118.12109375 33.39355469 117.78344727 C34.55661133 117.91678467 35.71966797 118.05012207 36.91796875 118.1875 C37.56586365 118.25352921 38.21375854 118.31955841 38.88128662 118.3875885 C40.30505487 118.53427566 41.72770051 118.69217536 43.14916992 118.85968018 C45.51846789 119.13080616 47.88836054 119.3541787 50.26367188 119.56591797 C54.53313707 119.94803583 58.79824491 120.36420322 63.06298828 120.7956543 C65.7209695 121.06234386 68.37993944 121.31724459 71.0390625 121.57226562 C72.73835378 121.74276826 74.43757553 121.91396561 76.13671875 122.0859375 C77.32252533 122.19699074 77.32252533 122.19699074 78.5322876 122.31028748 C82.21054315 122.69563359 84.30152913 123.03305067 87.43359375 125.12109375 C77.62868022 143.02248891 64.6558828 159.2677917 44.45898438 165.75537109 C31.75505253 169.41029588 19.63675343 170.3603405 6.49609375 170.37109375 C5.75815582 170.37176849 5.0202179 170.37244324 4.25991821 170.37313843 C-18.42103233 170.34014908 -38.62250717 166.63361013 -55.75390625 150.49609375 C-76.25186809 129.02358539 -79.29015092 102.67930113 -78.70263672 74.5078125 C-77.84761153 53.25170233 -68.29046924 34.90889727 -53.56640625 20.12109375 C-52.93089844 19.45078125 -52.29539062 18.78046875 -51.640625 18.08984375 C-38.2929782 5.06774931 -17.98871757 0.61078888 0 0 Z M-13.56640625 47.12109375 C-18.30941262 55.1008815 -20.56640625 60.83667979 -20.56640625 70.12109375 C-3.07640625 70.12109375 14.41359375 70.12109375 32.43359375 70.12109375 C31.19708643 58.99252787 29.31966673 49.58469259 20.43359375 42.12109375 C9.34220181 34.84365629 -5.06447319 36.89096402 -13.56640625 47.12109375 Z " fill="#F49834" transform="translate(1277.56640625,670.87890625)"/>
<path d="M0 0 C0.76446442 -0.00233643 1.52892883 -0.00467285 2.31655884 -0.00708008 C17.65704343 -0.02466436 32.66287896 1.26144136 47.875 3.25 C47.20134227 7.19724936 46.52580067 11.14417157 45.84863281 15.09082031 C45.50750403 17.081216 45.16779848 19.07185544 44.828125 21.0625 C43.61150896 28.14749931 42.3423058 35.21232817 40.875 42.25 C39.78445313 42.14171875 39.78445313 42.14171875 38.671875 42.03125 C23.71303805 39.9727603 23.71303805 39.9727603 9.875 44.25 C4.73389091 50.40040658 5.48647926 57.30076962 4.875 65.25 C14.445 65.25 24.015 65.25 33.875 65.25 C33.875 80.43 33.875 95.61 33.875 111.25 C24.305 111.25 14.735 111.25 4.875 111.25 C4.875 149.86 4.875 188.47 4.875 228.25 C-15.915 228.25 -36.705 228.25 -58.125 228.25 C-58.125 189.64 -58.125 151.03 -58.125 111.25 C-65.715 111.25 -73.305 111.25 -81.125 111.25 C-81.125 96.07 -81.125 80.89 -81.125 65.25 C-73.535 65.25 -65.945 65.25 -58.125 65.25 C-58.186875 62.094375 -58.24875 58.93875 -58.3125 55.6875 C-58.39740063 39.80000781 -56.09480317 24.57086348 -45.125 12.25 C-31.26275367 1.44328933 -16.97837137 0.02352672 0 0 Z " fill="#F49934" transform="translate(476.125,609.75)"/>
<path d="M0 0 C-0.59278482 4.66618976 -1.88533414 8.49309815 -3.765625 12.796875 C-4.04090027 13.43054993 -4.31617554 14.06422485 -4.59979248 14.71710205 C-5.1816793 16.05302354 -5.76680131 17.38754005 -6.35498047 18.72070312 C-7.24002114 20.72737472 -8.11501383 22.7381812 -8.98828125 24.75 C-12.12282615 31.93772077 -15.38856872 39.03656751 -19 46 C-20.05058594 45.69964844 -21.10117188 45.39929688 -22.18359375 45.08984375 C-35.65721732 41.31628697 -35.65721732 41.31628697 -48.6875 45.3125 C-58.56660033 52.55372537 -60.73183606 65.83418612 -62.50097656 77.22583008 C-64.80665457 94.66393006 -64.3076777 112.57512639 -64.5625 130.125 C-64.706875 139.65375 -64.85125 149.1825 -65 159 C-85.79 159 -106.58 159 -128 159 C-128 105.21 -128 51.42 -128 -4 C-108.53 -4 -89.06 -4 -69 -4 C-68.67 3.26 -68.34 10.52 -68 18 C-66.96875 16.329375 -65.9375 14.65875 -64.875 12.9375 C-58.53285373 3.03663439 -52.77121623 -3.60232501 -41.125 -6.8125 C-26.81126956 -9.91797269 -12.97025322 -6.48512661 0 0 Z " fill="#F49934" transform="translate(1216,679)"/>
<path d="M0 0 C5.53809746 6.1034231 5.53809746 6.1034231 5.80859375 9.4140625 C5.46083203 11.35634872 5.04673236 13.28641555 4.62890625 15.21484375 C5.22248043 18.23201915 5.22248043 18.23201915 7.62890625 20.21484375 C9.21018664 20.44416554 10.79932998 20.62134638 12.390625 20.765625 C15.55910297 21.34799234 17.1741674 21.74964902 19.44458008 24.07226562 C21.00989615 26.49670558 22.34227905 28.94448765 23.62890625 31.52734375 C24.09167969 32.38263672 24.55445313 33.23792969 25.03125 34.11914062 C26.28467478 36.46431655 27.49223613 38.81100266 28.62890625 41.21484375 C29.03463867 42.05756836 29.44037109 42.90029297 29.85839844 43.76855469 C30.62890625 46.21484375 30.62890625 46.21484375 29.20703125 49.9296875 C28.45287155 51.34908409 27.67523575 52.75616938 26.87890625 54.15234375 C26.46495605 54.90161133 26.05100586 55.65087891 25.62451172 56.42285156 C17.73485856 70.40084015 4.34134805 92.66040391 -10.25 100.18359375 C-19.27169631 100.31651009 -31.16415765 86.19189333 -37.37109375 80.21484375 C-38.00402344 79.64507812 -38.63695312 79.0753125 -39.2890625 78.48828125 C-54.56583769 64.33639924 -68.77272963 40.0346474 -71.37109375 19.21484375 C-66.94156355 16.13878111 -66.94156355 16.13878111 -64.49609375 16.46484375 C-63.79484375 16.71234375 -63.09359375 16.95984375 -62.37109375 17.21484375 C-58.94866061 18.2156691 -58.94866061 18.2156691 -55.37109375 18.21484375 C-51.34579826 15.23962534 -50.13534019 13.0442308 -49.37109375 8.21484375 C-38.86499029 4.43672407 -28.38928772 0.9405405 -17.43359375 -1.28515625 C-16.20237793 -1.54280762 -16.20237793 -1.54280762 -14.94628906 -1.80566406 C-9.41089682 -2.86035275 -4.7628768 -3.58588912 0 0 Z " fill="#F49834" transform="translate(104.37109375,46.78515625)"/>
<path d="M0 0 C12.01572731 11.32911432 17.98809889 26.19206823 18.5625 42.5625 C18.14834659 58.76050005 12.22856997 73.2354576 0.90625 84.84765625 C-11.36529259 95.94618374 -26.7139929 100.69670869 -43.0859375 100.52734375 C-59.70506674 99.2693926 -74.442194 92.62794536 -85.75 80.25 C-96.99995162 65.40340957 -100.75979686 49.39655997 -98.3203125 31.01171875 C-95.08210273 15.92006212 -86.17804529 3.27983874 -73.39453125 -5.18359375 C-50.06291701 -19.00335344 -21.12517526 -17.69947116 0 0 Z M-72.62890625 12.265625 C-74.14757752 14.19917138 -75.4721877 16.15073693 -76.75 18.25 C-77.12640625 18.84039062 -77.5028125 19.43078125 -77.890625 20.0390625 C-84.18541198 31.07842773 -85.04787248 44.15379984 -81.75 56.25 C-77.75794193 68.0762096 -70.75357954 76.85714083 -59.75 82.6875 C-47.59733107 88.24784662 -36.41610546 88.63760516 -23.75 84.25 C-11.83805235 78.7323446 -4.63978165 70.31872859 0.25 58.25 C4.20673559 46.59660065 3.56559505 33.35550473 -1.75 22.25 C-4.72534136 16.9106888 -8.14780462 12.30431498 -12.75 8.25 C-13.57564453 7.51136719 -13.57564453 7.51136719 -14.41796875 6.7578125 C-23.13470061 -0.46718999 -32.9257955 -2.4891577 -44.078125 -2.125 C-55.36070747 -0.97273626 -64.87725898 3.94992855 -72.62890625 12.265625 Z " fill="#000000" transform="translate(1277.75,141.75)"/>
<path d="M0 0 C0.2928186 0.8206897 0.2928186 0.8206897 0.59155273 1.65795898 C9.2874981 25.80439818 20.17978313 46.09784249 39 64 C39.70511719 64.67675781 40.41023438 65.35351562 41.13671875 66.05078125 C46.39809598 70.96525449 51.73093402 74.94900982 57.9453125 78.58984375 C58.96238281 79.28787109 58.96238281 79.28787109 60 80 C60 80.66 60 81.32 60 82 C57.86639241 83.69310153 55.73569649 85.26479731 53.5 86.8125 C52.86304199 87.26028809 52.22608398 87.70807617 51.56982422 88.16943359 C47.13610434 91.26684044 42.63867828 94.21679303 38 97 C39.79949795 97.73575695 39.79949795 97.73575695 42 98 C44.03599504 97.09209757 44.03599504 97.09209757 45.96875 95.578125 C47.07283203 94.78148437 47.07283203 94.78148437 48.19921875 93.96875 C48.95847656 93.4015625 49.71773438 92.834375 50.5 92.25 C51.25925781 91.69828125 52.01851563 91.1465625 52.80078125 90.578125 C56.99973222 87.52068616 56.99973222 87.52068616 61.05664062 84.28027344 C63 83 63 83 66.0625 83.5625 C70.137995 85.55689117 71.33164355 87.85042691 73.5625 91.6875 C74.7908468 94.11355864 74.7908468 94.11355864 77 95 C80.12386998 95.14199409 82.767159 95.05691669 85.8125 94.3125 C90.32281156 93.87031259 93.83961403 95.36358152 98 97 C98 97.66 98 98.32 98 99 C95.79290017 99.65003625 93.58426108 100.29484745 91.375 100.9375 C89.53035156 101.47697266 89.53035156 101.47697266 87.6484375 102.02734375 C65.87453192 107.8321644 42.51370884 103.57937047 23 92.875 C2.72549034 80.45385772 -11.31075319 62.09738663 -17.5 39.0625 C-19.38845943 30.90732632 -21.3914555 21.20196135 -19 13 C-15.91814323 8.90332038 -12.4061124 6.53942379 -8 4 C-6.80747461 3.15286357 -5.61859827 2.30049699 -4.4375 1.4375 C-2 0 -2 0 0 0 Z " fill="#F49834" transform="translate(30,69)"/>
<path d="M0 0 C9.29522742 6.92197786 15.20136403 16.56035436 19.875 27 C20.14892578 27.60312012 20.42285156 28.20624023 20.70507812 28.82763672 C25.13242455 39.28902787 26.54173316 50.03088927 26.4375 61.3125 C26.42847656 62.49312012 26.41945312 63.67374023 26.41015625 64.89013672 C25.95202529 88.07983491 16.64725861 106.87821 1.30078125 123.8828125 C0 125 0 125 -2 125 C-2.10957031 124.36835938 -2.21914062 123.73671875 -2.33203125 123.0859375 C-5.40923858 105.72348313 -9.20035076 88.16147689 -16.8046875 72.1328125 C-18.58273281 67.47270681 -17.17637646 64.12002704 -15.328125 59.65625 C-10.56196717 47.83497751 -7.0288158 36.1912717 -4.44555664 23.70800781 C-4 22 -4 22 -3 21 C3.4694909 21.16687179 9.73357087 22.48392844 16 24 C15.505 22.02 15.505 22.02 15 20 C14.10796875 19.86722656 13.2159375 19.73445313 12.296875 19.59765625 C11.12640625 19.42105469 9.9559375 19.24445312 8.75 19.0625 C7.00976562 18.80146484 7.00976562 18.80146484 5.234375 18.53515625 C2.76893039 18.1272264 0.40575438 17.66098697 -2 17 C-1.85941524 14.54126232 -1.71277001 12.08314825 -1.5625 9.625 C-1.52318359 8.92632812 -1.48386719 8.22765625 -1.44335938 7.5078125 C-1.11328125 2.2265625 -1.11328125 2.2265625 0 0 Z " fill="#F49835" transform="translate(157,25)"/>
<path d="M0 0 C0.82371094 0.391875 1.64742188 0.78375 2.49609375 1.1875 C5.0491277 2.60339405 6.42768648 3.52395202 8 6 C8.61148136 13.12336079 7.17075916 19.98656568 6 27 C4.8092688 26.88192993 4.8092688 26.88192993 3.59448242 26.76147461 C-3.36025461 26.15940796 -10.10690355 25.97960824 -17.07421875 26.25390625 C-18.66468793 26.30356174 -20.25518343 26.35238066 -21.84570312 26.40039062 C-24.2768361 26.47438911 -26.70259759 26.56334621 -29.13110352 26.69946289 C-42.71265855 27.42848185 -42.71265855 27.42848185 -48.28027344 23.95141602 C-51.01623736 21.41967464 -53.49388304 18.75665085 -56 16 C-58.84045771 13.74747119 -61.82915046 11.7753045 -64.875 9.8125 C-66.018479 9.06178223 -66.018479 9.06178223 -67.18505859 8.29589844 C-73.59465389 4.14100888 -80.17351228 0.42530479 -87 -3 C-87 -3.66 -87 -4.32 -87 -5 C-57.49100231 -18.23719223 -27.76840267 -16.48078304 0 0 Z " fill="#F49834" transform="translate(145,14)"/>
<path d="M0 0 C3.84384363 3.85293073 4.92175373 7.86867342 5.125 13.234375 C4.88577156 16.75861831 4.07649925 18.75621292 1.96484375 21.59375 C-0.28465508 23.47415146 -2.55649594 25.00366603 -5.03515625 26.59375 C-4.27203125 27.13 -3.50890625 27.66625 -2.72265625 28.21875 C2.15121666 32.52589351 3.56937022 38.13245503 5.08984375 44.28125 C6.40259109 49.47273947 6.40259109 49.47273947 7.96484375 54.59375 C2.68484375 54.59375 -2.59515625 54.59375 -8.03515625 54.59375 C-10.35422548 49.18258845 -11.84425148 44.67354759 -13.09375 39.046875 C-14.25016877 36.03346842 -15.20385042 35.11453776 -18.03515625 33.59375 C-21.70677235 32.92198784 -25.2976169 32.81622258 -29.03515625 32.59375 C-29.03515625 39.85375 -29.03515625 47.11375 -29.03515625 54.59375 C-33.65515625 54.59375 -38.27515625 54.59375 -43.03515625 54.59375 C-43.03515625 35.78375 -43.03515625 16.97375 -43.03515625 -2.40625 C-10.68510382 -7.38318114 -10.68510382 -7.38318114 0 0 Z M-29.03515625 6.59375 C-29.03515625 11.54375 -29.03515625 16.49375 -29.03515625 21.59375 C-26.21984375 21.6865625 -26.21984375 21.6865625 -23.34765625 21.78125 C-21.76404297 21.83345703 -21.76404297 21.83345703 -20.1484375 21.88671875 C-16.61679026 21.55438055 -14.85260196 20.71053496 -12.03515625 18.59375 C-9.79433195 15.85634624 -9.79433195 15.85634624 -10.09765625 13.15625 C-11.3683981 9.68288896 -12.94423266 8.59400709 -16.03515625 6.59375 C-19.38510426 6.11295481 -19.38510426 6.11295481 -22.84765625 6.34375 C-25.91046875 6.4675 -25.91046875 6.4675 -29.03515625 6.59375 Z " fill="#000000" transform="translate(1258.03515625,159.40625)"/>
<path d="M0 0 C4.16685976 3.64030283 5.18868523 8.50466173 6.875 13.625 C7.22361084 14.67792236 7.57222168 15.73084473 7.93139648 16.81567383 C10.44732259 24.68426323 12.42484812 32.59241117 14.0625 40.6875 C14.27825684 41.74340332 14.49401367 42.79930664 14.71630859 43.88720703 C16.36559766 52.58384455 16.36559766 52.58384455 15 57 C12.83362912 58.89855031 10.91262027 60.36695664 8.5 61.875 C7.54432129 62.47477661 7.54432129 62.47477661 6.56933594 63.08666992 C2.31613179 65.59175333 -0.85871735 67.05162489 -5.828125 65.78125 C-6.54484375 65.5234375 -7.2615625 65.265625 -8 65 C-8.90234375 64.7421875 -9.8046875 64.484375 -10.734375 64.21875 C-13.37653892 63.35295617 -15.64877342 62.4847387 -18 61 C-18.875 58 -18.875 58 -19 55 C-20.56304526 52.52018248 -20.56304526 52.52018248 -23 51 C-26 50.41666667 -26 50.41666667 -29 51 C-29.66 51.53625 -30.32 52.0725 -31 52.625 C-31.99 53.305625 -31.99 53.305625 -33 54 C-36.25 53.1875 -36.25 53.1875 -39 52 C-39 51.34 -39 50.68 -39 50 C-37.63671875 48.6953125 -37.63671875 48.6953125 -35.6875 47.125 C-20.51255281 34.11028255 -9.41804689 17.47878703 0 0 Z " fill="#F39835" transform="translate(136,98)"/>
<path d="M0 0 C3.7765332 1.5258268 7.25886693 3.3232467 10.796875 5.33203125 C11.83702759 5.920448 11.83702759 5.920448 12.89819336 6.52075195 C22.6012919 12.11729154 32.17234456 18.59438321 40.296875 26.33203125 C40.296875 26.99203125 40.296875 27.65203125 40.296875 28.33203125 C39.72469238 28.4520752 39.15250977 28.57211914 38.56298828 28.69580078 C27.46985049 31.04996438 16.61686067 33.51902864 6.02197266 37.62744141 C2.80601583 38.81154989 0.87106094 39.50024347 -2.4765625 38.51953125 C-3.21132813 38.12765625 -3.94609375 37.73578125 -4.703125 37.33203125 C-8.24543309 36.74860772 -8.24543309 36.74860772 -11.703125 37.33203125 C-14.37510152 39.79306226 -15.56165604 41.34174854 -16.078125 44.95703125 C-16.703125 47.33203125 -16.703125 47.33203125 -19.765625 49.14453125 C-21.2196875 49.73234375 -21.2196875 49.73234375 -22.703125 50.33203125 C-28.64630682 30.20445549 -28.64630682 30.20445549 -27.703125 22.33203125 C-22.70767863 15.04398872 -15.42574011 8.99741459 -8.703125 3.33203125 C-8.12433594 2.83058594 -7.54554687 2.32914063 -6.94921875 1.8125 C-4.36373505 -0.20593245 -3.2403712 -0.80072757 0 0 Z " fill="#F49835" transform="translate(54.703125,12.66796875)"/>
<path d="M0 0 C4.17682421 -0.05022543 8.35347868 -0.0861004 12.53051758 -0.10986328 C13.94526235 -0.11979131 15.35998734 -0.13333825 16.7746582 -0.15087891 C26.02228382 -0.26249384 34.88134023 0.26040408 44 2 C41.43204329 16.53087702 37.23366215 30.19950538 32 44 C28.62089905 42.87363302 28.43341244 42.52960983 26.80859375 39.578125 C26.42123047 38.88203125 26.03386719 38.1859375 25.63476562 37.46875 C25.23966797 36.7365625 24.84457031 36.004375 24.4375 35.25 C24.03853516 34.53328125 23.63957031 33.8165625 23.22851562 33.078125 C19.81246755 26.87334987 17.78412992 23.14323675 19 16 C18.19578835 13.36803461 17.4827477 12.34481979 15.25 10.75 C12.94543513 9.80720414 12.94543513 9.80720414 10.1875 10.3125 C5.834469 9.88573225 4.27936034 7.87933957 1.3203125 4.82421875 C0 3 0 3 0 0 Z " fill="#F49835" transform="translate(106,43)"/>
<path d="M0 0 C0.33 0 0.66 0 1 0 C1.67507066 3.06070934 2.33854922 6.1238209 3 9.1875 C3.19078125 10.05181641 3.3815625 10.91613281 3.578125 11.80664062 C3.75859375 12.64775391 3.9390625 13.48886719 4.125 14.35546875 C4.29257812 15.12528076 4.46015625 15.89509277 4.6328125 16.68823242 C5.03628303 19.22843353 5.25868826 21.43500435 5 24 C2.74414993 26.01447113 0.68716691 27.60489902 -1.8125 29.25 C-2.45509766 29.69601563 -3.09769531 30.14203125 -3.75976562 30.6015625 C-6.46855605 32.45420673 -8.873819 33.95793967 -12 35 C-11.25020074 27.45029706 -9.77717909 20.64819716 -7.125 13.5625 C-6.88056152 12.90121094 -6.63612305 12.23992188 -6.38427734 11.55859375 C-4.71105911 7.26193457 -2.72261434 3.6852123 0 0 Z " fill="#F29937" transform="translate(23,42)"/>
<path d="M0 0 C0.66 0.66 1.32 1.32 2 2 C0 4 -2 6 -4 8 C-4 8.99 -4 9.98 -4 11 C-7.05263664 11.98120464 -8.94736336 11.98120464 -12 11 C-12 10.34 -12 9.68 -12 9 C-10.390625 7.8515625 -10.390625 7.8515625 -8.25 6.625 C-5.05775961 4.71757977 -2.49035279 2.80164689 0 0 Z " fill="#ED9A3E" transform="translate(322,787)"/>
<path d="M0 0 C0.66 0.33 1.32 0.66 2 1 C2 1.66 2 2.32 2 3 C0.35 3 -1.3 3 -3 3 C-2.01 2.01 -1.02 1.02 0 0 Z M-5 3 C-4.34 3.33 -3.68 3.66 -3 4 C-3.639375 4.556875 -4.27875 5.11375 -4.9375 5.6875 C-7.19680987 8.22066561 -7.63149047 9.68341424 -8 13 C-10.33333333 13 -12.66666667 13 -15 13 C-12.02911382 9.00073014 -8.87051275 6.07881696 -5 3 Z " fill="#EB9B3C" transform="translate(40,683)"/>
<path d="M0 0 C0.99 0 1.98 0 3 0 C3 0.66 3 1.32 3 2 C2.34 2 1.68 2 1 2 C1 2.66 1 3.32 1 4 C2.32 4 3.64 4 5 4 C4.67 4.99 4.34 5.98 4 7 C1.69 6.67 -0.62 6.34 -3 6 C-3 5.34 -3 4.68 -3 4 C-2.34 4 -1.68 4 -1 4 C-0.67 2.68 -0.34 1.36 0 0 Z " fill="#F89929" transform="translate(109,140)"/>
<path d="M0 0 C2.72869407 0.03287583 5.2966618 0.56397771 8 1 C8 1.33 8 1.66 8 2 C6.9275 2.28875 5.855 2.5775 4.75 2.875 C1.90599636 3.72820109 -0.43508983 4.5636503 -3 6 C-2.42655063 3.13275314 -2.1385485 2.1385485 0 0 Z " fill="#EC9A43" transform="translate(104,146)"/>
<path d="M0 0 C0.33 0 0.66 0 1 0 C1.33 4.95 1.66 9.9 2 15 C1.01 15 0.02 15 -1 15 C-0.67 10.05 -0.34 5.1 0 0 Z " fill="#E99C3E" transform="translate(156,27)"/>
<path d="M0 0 C3.1875 0.875 3.1875 0.875 6 2 C4.04374002 2.65208666 2.08548011 3.29821301 0.125 3.9375 C-2.62714278 4.87322855 -5.31290448 5.8935489 -8 7 C-5.42215154 4.35247996 -3.08351902 2.05567935 0 0 Z " fill="#EE9845" transform="translate(52,12)"/>
<path d="M0 0 C0.66 0 1.32 0 2 0 C2 0.66 2 1.32 2 2 C2.66 2 3.32 2 4 2 C4 1.34 4 0.68 4 0 C4.66 0 5.32 0 6 0 C5.43628586 3.26954202 4.50037734 4.82575883 2 7 C1.34 4.69 0.68 2.38 0 0 Z " fill="#ED9A3F" transform="translate(666,790)"/>
<path d="M0 0 C0.99 0 1.98 0 3 0 C3 1.65 3 3.3 3 5 C1.02 5.99 1.02 5.99 -1 7 C-1 6.34 -1 5.68 -1 5 C-1.66 5 -2.32 5 -3 5 C-1.125 1.125 -1.125 1.125 0 0 Z " fill="#E89C3F" transform="translate(25,61)"/>
<path d="M0 0 C0.33 0.99 0.66 1.98 1 3 C-0.65 4.65 -2.3 6.3 -4 8 C-4.99 7.67 -5.98 7.34 -7 7 C-4.69 4.69 -2.38 2.38 0 0 Z " fill="#EF9843" transform="translate(42,19)"/>
<path d="M0 0 C1.98 0.99 1.98 0.99 4 2 C4 1.34 4 0.68 4 0 C4.66 0.33 5.32 0.66 6 1 C5.01 3.31 4.02 5.62 3 8 C1.0549 5.08235 0.54723683 3.37462715 0 0 Z " fill="#EE9940" transform="translate(210,782)"/>
<path d="M0 0 C0.33 0.66 0.66 1.32 1 2 C1.66 2 2.32 2 3 2 C2.67 3.98 2.34 5.96 2 8 C1.67 7.34 1.34 6.68 1 6 C0.34 6 -0.32 6 -1 6 C-1.042721 4.33388095 -1.04063832 2.66617115 -1 1 C-0.67 0.67 -0.34 0.34 0 0 Z " fill="#EF993F" transform="translate(385,784)"/>
<path d="M0 0 C0 0.66 0 1.32 0 2 C-0.99 2.495 -0.99 2.495 -2 3 C-2.33 3.99 -2.66 4.98 -3 6 C-4.65 6.33 -6.3 6.66 -8 7 C-6.47663111 3.31852519 -4.31953005 0 0 0 Z " fill="#F19741" transform="translate(735,714)"/>
<path d="M0 0 C2.475 0.99 2.475 0.99 5 2 C5 2.66 5 3.32 5 4 C4.34 4 3.68 4 3 4 C3 5.65 3 7.3 3 9 C0.87491756 5.81237635 0.4979837 3.73487777 0 0 Z " fill="#EF9749" transform="translate(33,66)"/>
<path d="M0 0 C-0.99 1.485 -0.99 1.485 -2 3 C-5.125 3.1875 -5.125 3.1875 -8 3 C-8 2.34 -8 1.68 -8 1 C-2.25 -1.125 -2.25 -1.125 0 0 Z " fill="#E99B42" transform="translate(1006,733)"/>
<path d="M0 0 C0.33 1.32 0.66 2.64 1 4 C-1.64 3.34 -4.28 2.68 -7 2 C-4 0 -4 0 0 0 Z " fill="#EC9B3F" transform="translate(263,832)"/>
<path d="M0 0 C0.99 0.33 1.98 0.66 3 1 C3 2.65 3 4.3 3 6 C-0.875 4.25 -0.875 4.25 -2 2 C-1.34 2 -0.68 2 0 2 C0 1.34 0 0.68 0 0 Z " fill="#EE9A3E" transform="translate(37,145)"/>
<path d="M0 0 C0.33 0.66 0.66 1.32 1 2 C0.0625 4.625 0.0625 4.625 -1 7 C-1.99 6.67 -2.98 6.34 -4 6 C-2.25 1.125 -2.25 1.125 0 0 Z " fill="#ED9848" transform="translate(139,80)"/>
<path d="M0 0 C0.33 0.66 0.66 1.32 1 2 C-3.30769231 5.07692308 -3.30769231 5.07692308 -6.8125 4.6875 C-7.534375 4.460625 -8.25625 4.23375 -9 4 C-6.01353231 2.00902154 -3.40312738 1.05875074 0 0 Z " fill="#E79C45" transform="translate(66,51)"/>
<path d="M0 0 C2.31 0.33 4.62 0.66 7 1 C3.73454239 2.88391785 0.71888239 3.49287967 -3 4 C-2.01 2.68 -1.02 1.36 0 0 Z " fill="#E89D3F" transform="translate(73,42)"/>
<path d="M0 0 C1.32 0 2.64 0 4 0 C3.34 2.31 2.68 4.62 2 7 C0 4 0 4 0 0 Z " fill="#EA9B3F" transform="translate(866,808)"/>
<path d="M0 0 C0.66 0.33 1.32 0.66 2 1 C0.02 3.31 -1.96 5.62 -4 8 C-4.99 7.34 -5.98 6.68 -7 6 C-4.69 4.02 -2.38 2.04 0 0 Z " fill="#ED9D39" transform="translate(1008,792)"/>
<path d="M0 0 C2.31 0.33 4.62 0.66 7 1 C4.08235 2.9451 2.37462715 3.45276317 -1 4 C-0.67 2.68 -0.34 1.36 0 0 Z " fill="#EC9A41" transform="translate(979,768)"/>
<path d="M0 0 C2.97 0.495 2.97 0.495 6 1 C2.81237635 3.12508244 0.73487777 3.5020163 -3 4 C-2.01 2.68 -1.02 1.36 0 0 Z " fill="#E89D3D" transform="translate(1001,762)"/>
<path d="M0 0 C2 2 2 2 2 6 C1.34 6 0.68 6 0 6 C0 6.66 0 7.32 0 8 C-0.66 8 -1.32 8 -2 8 C-1.34 5.36 -0.68 2.72 0 0 Z " fill="#EC9A41" transform="translate(716,754)"/>
<path d="M0 0 C3.3 0.33 6.6 0.66 10 1 C10 1.33 10 1.66 10 2 C6.7 2.33 3.4 2.66 0 3 C0 2.01 0 1.02 0 0 Z " fill="#EC9A40" transform="translate(104,170)"/>
<path d="M0 0 C1.10844919 3.32534757 0.84454356 5.62182575 0 9 C-0.66 8.67 -1.32 8.34 -2 8 C-2.625 4.9375 -2.625 4.9375 -3 2 C-2.01 1.34 -1.02 0.68 0 0 Z " fill="#EC9A40" transform="translate(127,54)"/>
</svg>
