<svg fill="none" height="36" viewBox="0 0 157 36" width="157" xmlns="http://www.w3.org/2000/svg">
<g clip-path="url(#clip0_439_6654)">
<path class="ring" d="M45.3077 18.0769L29.9231 4.53846C26.7692 1.69231 22.6154 0 18 0C8.07692 0 0 8.07692 0 18C0 27.9231 8.07692 36 18 36C22.6154 36 26.6923 34.2308 29.9231 31.4615L45.3077 18.0769ZM5.38462 18.0769C5.38462 11.1538 11 5.46154 18 5.46154C24.9231 5.46154 30.6154 11.0769 30.6154 18.0769C30.6154 25 25 30.6923 18 30.6923C11.1538 30.6154 5.38462 25 5.38462 18.0769Z" fill="#E51B40"></path>
<path d="M51.7695 22.7693C51.7695 19.077 54.8465 16.5385 63.8465 15.3078V14.4616C63.8465 12.2308 62.6157 11.1539 60.3849 11.1539C57.6926 11.1539 55.6926 12.3847 53.8465 13.8462L52.1541 12.2308C54.3849 10.1539 57.1541 8.69238 60.7695 8.69238C65.0772 8.69238 66.7695 10.9232 66.7695 14.6924V22.6924C66.7695 24.9232 66.9234 26.1539 67.2311 27.1539H64.1541C63.9234 26.3847 63.7695 25.6924 63.7695 24.6924C61.7695 26.5385 59.4618 27.3847 56.9234 27.3847C53.6926 27.3847 51.7695 25.7693 51.7695 22.7693ZM63.7695 22.4616V17.4616C56.9234 18.5385 54.6926 20.1539 54.6926 22.4616C54.6926 24.1539 55.7695 25.1539 57.7695 25.1539C60.0003 25.0001 62.0772 24.0001 63.7695 22.4616Z" fill="#595A5C"></path>
<path d="M70.5391 18.1534C70.5391 11.6149 74.6929 8.8457 78.7698 8.8457C82.8468 8.8457 84.6929 11.1534 85.7698 13.8457L83.3083 14.8457C82.4621 12.538 81.0006 11.3072 78.616 11.3072C76.0006 11.3072 73.4621 13.1534 73.4621 18.1534C73.4621 22.6149 75.5391 24.9995 78.616 24.9995C80.9237 24.9995 82.3083 23.9996 83.3852 21.4611L85.8468 22.4611C84.4621 25.3842 82.3852 27.6149 78.4621 27.6149C74.4621 27.4611 70.5391 24.3072 70.5391 18.1534Z" fill="#595A5C"></path>
<path d="M88.4609 18.1534C88.4609 11.6149 92.6148 8.8457 96.6917 8.8457C100.769 8.8457 102.615 11.1534 103.692 13.8457L101.23 14.8457C100.384 12.538 98.9225 11.3072 96.5379 11.3072C93.9225 11.3072 91.384 13.1534 91.384 18.1534C91.384 22.6149 93.4609 24.9995 96.5379 24.9995C98.8456 24.9995 100.23 23.9996 101.307 21.4611L103.769 22.4611C102.384 25.3842 100.307 27.6149 96.384 27.6149C92.4609 27.4611 88.4609 24.3072 88.4609 18.1534Z" fill="#595A5C"></path>
<path d="M106.461 18.1534C106.461 11.6149 110.769 8.8457 114.538 8.8457C118.846 8.8457 121.999 11.7688 121.999 18.3072V18.9226H109.307C109.461 22.9996 111.769 25.1534 114.692 25.1534C117.307 25.1534 118.769 24.0765 120.076 22.2303L121.769 23.6919C120.076 25.9996 117.846 27.538 114.384 27.538C110.384 27.4611 106.461 24.3842 106.461 18.1534ZM119.307 16.538C119.076 13.3072 117.615 11.1534 114.615 11.1534C112.153 11.1534 109.922 12.8457 109.461 16.538H119.307Z" fill="#595A5C"></path>
<path d="M124.615 24.3849L126.308 22.6926C127.692 24.1541 129.538 25.1542 131.923 25.1542C134.769 25.1542 136.231 24.1541 136.231 22.308C136.231 20.4618 134.615 19.8465 131.538 19.0772C127.692 18.2311 125.154 17.0772 125.154 13.6926C125.154 11.0003 127.461 8.76953 131.384 8.76953C134.615 8.76953 136.538 9.76953 138.231 11.3849L136.769 13.3849C135.384 12.1541 133.538 11.308 131.615 11.308C129 11.308 127.923 12.3849 127.923 13.7695C127.923 15.4618 129.384 16.0772 132.231 16.6926C136.308 17.6926 139.077 18.6926 139.077 22.308C139.077 25.7695 136 27.6157 131.923 27.6157C128.769 27.3849 126.077 26.1542 124.615 24.3849Z" fill="#595A5C"></path>
<path d="M141.691 24.3849L143.384 22.6926C144.768 24.1541 146.614 25.1542 148.999 25.1542C151.845 25.1542 153.307 24.1541 153.307 22.308C153.307 20.4618 151.691 19.8465 148.614 19.0772C144.768 18.2311 142.23 17.0772 142.23 13.6926C142.23 11.0003 144.538 8.76953 148.461 8.76953C151.691 8.76953 153.614 9.76953 155.307 11.3849L153.845 13.3849C152.461 12.1541 150.614 11.308 148.691 11.308C146.076 11.308 144.999 12.3849 144.999 13.7695C144.999 15.4618 146.461 16.0772 149.307 16.6926C153.384 17.6926 156.153 18.6926 156.153 22.308C156.153 25.7695 153.076 27.6157 148.999 27.6157C145.845 27.3849 143.153 26.1542 141.691 24.3849Z" fill="#595A5C"></path>
</g>
<defs>
<clipPath id="clip0_439_6654">
<rect fill="white" height="36" width="156.308"></rect>
</clipPath>
</defs>
</svg>